<?xml version="1.0" encoding="UTF-8"?>
<svg version="1.1" xmlns="http://www.w3.org/2000/svg" width="2026" height="428">
<path d="M0 0 C668.58 0 1337.16 0 2026 0 C2026 141.24 2026 282.48 2026 428 C1357.42 428 688.84 428 0 428 C0 286.76 0 145.52 0 0 Z " fill="#FDFDFD" transform="translate(0,0)"/>
<path d="M0 0 C7.02808101 13.93034848 13.88248773 27.9318575 20.58203125 42.02294922 C23.02210821 47.1459345 25.48028571 52.26021824 27.9375 57.375 C28.94924567 59.4817579 29.96096436 61.58852877 30.97265625 63.6953125 C31.4742627 64.73977539 31.97586914 65.78423828 32.49267578 66.86035156 C33.97385643 69.94554482 35.45391691 73.03127276 36.93359375 76.1171875 C41.99624165 86.67377709 47.07086028 97.2244565 52.16445923 107.7661438 C54.77827235 113.17648026 57.38930181 118.5881599 60 124 C60.49918945 125.03431152 60.99837891 126.06862305 61.51269531 127.13427734 C61.98545898 128.11477051 62.45822266 129.09526367 62.9453125 130.10546875 C63.3489502 130.94231201 63.75258789 131.77915527 64.16845703 132.64135742 C68.47141302 141.6241757 72.69305429 150.63958539 76.83203125 159.69921875 C77.33271118 160.7934314 77.83339111 161.88764404 78.34924316 163.01501465 C79.56687249 165.67635255 80.78378067 168.33801752 82 171 C82.37398708 155.93166138 82.74787076 140.8633202 83.12164211 125.79497623 C83.29532272 118.79324799 83.46903352 111.79152049 83.64282227 104.78979492 C84.43532917 72.860028 85.22568732 40.93021427 86 9 C86.97668137 8.97605667 87.95336273 8.95211334 88.9596405 8.92744446 C106.773482 8.48864559 124.56708792 7.91116851 142.36706543 7.07556152 C161.26628661 6.18969725 180.08004691 5.73417591 199 6 C199.21264614 22.04976194 198.5420115 38.00873589 197.72265625 54.03515625 C197.59016177 56.69305189 197.45801608 59.35096282 197.32627869 62.00889587 C197.05136767 67.53987625 196.77270304 73.07065677 196.49145508 78.60131836 C196.16789894 84.96445773 195.84941203 91.3278347 195.533804 97.69137293 C195.22742928 103.86806077 194.91844716 110.04461506 194.60796928 116.22109795 C194.47709369 118.8272285 194.3467311 121.43338487 194.21690559 124.03956795 C194.03499426 127.68022583 193.85008 131.32071903 193.66430664 134.96118164 C193.61179749 136.02165207 193.55928833 137.0821225 193.50518799 138.17472839 C193.20836692 143.92306805 192.77740539 149.63964275 192.23294544 155.36955357 C191.86663905 159.50592706 191.65853381 163.64643562 191.45922852 167.79370117 C191.41352722 168.70641281 191.36782593 169.61912445 191.32073975 170.55949402 C191.17133141 173.55388411 191.02510464 176.54842037 190.87890625 179.54296875 C190.77322463 181.67345654 190.66733965 183.80393425 190.56126404 185.93440247 C190.28222235 191.54949413 190.00586367 197.16471466 189.73010254 202.77996826 C189.45638507 208.34492551 189.18027151 213.90976369 188.90429688 219.47460938 C188.47310762 228.17484018 188.04290003 236.87511891 187.61352539 245.57543945 C186.55902531 266.93716552 186.55902531 266.93716552 186.03164482 277.53260231 C185.9502532 279.1696445 185.86907047 280.80669709 185.78813362 282.44376183 C183.4070214 330.5929786 183.4070214 330.5929786 182 332 C180.39783673 332.21507332 178.78712898 332.36684979 177.17553711 332.49316406 C176.13310349 332.57723007 175.09066986 332.66129608 174.01664734 332.74790955 C172.86517715 332.83625565 171.71370697 332.92460175 170.52734375 333.015625 C169.32555984 333.11174576 168.12377594 333.20786652 166.88557434 333.30690002 C164.2730076 333.5156107 161.66037092 333.72278186 159.04748535 333.92739868 C152.10764799 334.47113908 145.16904141 335.03023221 138.23046875 335.58984375 C137.5200304 335.64700247 136.80959206 335.70416119 136.07762527 335.76305199 C125.64707436 336.6034545 115.2224687 337.49753676 104.80078125 338.44140625 C102.88234657 338.61508224 102.88234657 338.61508224 100.92515564 338.79226685 C94.82050569 339.34692096 88.71653709 339.90842854 82.61303711 340.47558594 C80.40348871 340.67779595 78.19393496 340.8799476 75.984375 341.08203125 C74.50696587 341.22228477 74.50696587 341.22228477 72.99971008 341.3653717 C67.30544531 341.88294204 61.71801647 342.0860265 56 342 C55.56993652 340.874729 55.13987305 339.74945801 54.69677734 338.59008789 C45.54501832 314.64919805 36.35981959 290.72148022 27.125 266.8125 C20.17477671 248.81707024 13.22810184 230.82030357 6.30023193 212.81625366 C5.44749737 210.60035667 4.59451917 208.38455341 3.74127197 206.16885376 C-0.89348816 194.1325839 -5.50064265 182.08761173 -10 170 C-11.19478102 186.07575942 -12.20010828 202.15017396 -13 218.25 C-14.06505157 239.60776849 -15.31635129 260.94936594 -16.7578125 282.28515625 C-16.82406326 283.26816711 -16.89031403 284.25117798 -16.95857239 285.26397705 C-17.28425832 290.09113162 -17.61277701 294.91805928 -17.94702148 299.74462891 C-18.65050496 310.02063387 -19.24231532 320.29115468 -19.629776 330.58451843 C-19.68143166 331.86586418 -19.68143166 331.86586418 -19.73413086 333.1730957 C-19.76163925 333.91404984 -19.78914764 334.65500397 -19.81748962 335.41841125 C-20.06777908 338.95872743 -20.55978181 342.47825449 -21 346 C-56.64 346 -92.28 346 -129 346 C-129 331.89676759 -128.93367681 317.82839586 -128.59765625 303.734375 C-128.55504898 301.87754685 -128.51260828 300.02071487 -128.47032166 298.16387939 C-128.38196994 294.30859508 -128.29188432 290.45335668 -128.20043945 286.59814453 C-128.08532543 281.74073865 -127.97423324 276.8832511 -127.86443424 272.0257225 C-127.77756635 268.20044412 -127.68868488 264.37521437 -127.59924126 260.54999542 C-127.55764202 258.76287355 -127.51657115 256.97573927 -127.4761219 255.188591 C-127.27501085 246.3559246 -127.03158428 237.52817607 -126.66466427 228.70070934 C-125.85964985 209.2461343 -125.450528 189.78173457 -124.99885559 170.3164196 C-124.84150151 163.53840314 -124.68052301 156.76047554 -124.5189209 149.9825592 C-124.06043192 130.73269838 -123.60567434 111.48275208 -123.15673828 92.23266602 C-122.90760153 81.55116256 -122.65501744 70.8697464 -122.39858294 60.18841559 C-122.23688351 53.44492986 -122.07948911 46.7013616 -121.92523956 39.95770156 C-121.82885671 35.7883165 -121.72843489 31.61903625 -121.62682152 27.4497757 C-121.58037411 25.51030757 -121.53561638 23.57079818 -121.49262428 21.63125038 C-121.43398997 18.99666703 -121.36944807 16.36229492 -121.30334473 13.72789001 C-121.28748495 12.95089357 -121.27162517 12.17389712 -121.25528479 11.37335533 C-121.11411239 6.11411239 -121.11411239 6.11411239 -120 5 C-118.63999677 4.84438227 -117.27248316 4.75366394 -115.90509033 4.68992615 C-115.02218826 4.64648071 -114.13928619 4.60303528 -113.22962952 4.55827332 C-112.25311935 4.5151149 -111.27660919 4.47195648 -110.27050781 4.42749023 C-109.24761154 4.37857635 -108.22471527 4.32966248 -107.17082214 4.27926636 C-103.76512594 4.11767555 -100.35915356 3.96300866 -96.953125 3.80859375 C-94.58671564 3.69824983 -92.22032176 3.58757336 -89.85394287 3.47657776 C-84.87720817 3.24417552 -79.90033659 3.01504979 -74.92333984 2.78833008 C-68.57167158 2.49884142 -62.22034321 2.20256993 -55.86909866 1.90394497 C-50.97215416 1.67425952 -46.07507157 1.44763828 -41.17794037 1.22197151 C-38.83855275 1.11392236 -36.49920148 1.00508299 -34.15988922 0.89541435 C-10.68249178 -0.20104477 -10.68249178 -0.20104477 0 0 Z " fill="#211E1F" transform="translate(490,34)"/>
<path d="M0 0 C1.2267897 -0.00790054 1.2267897 -0.00790054 2.47836304 -0.01596069 C44.5014828 -0.22492619 89.4694931 8.15780756 120.65625 38.3828125 C131.06100843 49.10906627 139.96386469 63.51969686 143.4375 78.25 C143.74107422 79.49523437 143.74107422 79.49523437 144.05078125 80.765625 C148.6243687 104.03802919 146.48933648 128.82074359 133.5 149 C132.49491319 150.42788152 131.47486919 151.84539675 130.4375 153.25 C130.01082031 153.84296875 129.58414062 154.4359375 129.14453125 155.046875 C120.24835941 166.42145248 106.89810489 172.93055216 93.4375 177.25 C96.63193022 179.37962015 99.58912783 180.48019132 103.1875 181.8125 C114.5104673 186.19876221 125.39249546 191.97819125 133.4375 201.25 C134.6440625 202.3946875 134.6440625 202.3946875 135.875 203.5625 C152.22082745 220.70568489 159.51595645 241.52793209 159.6875 264.9375 C159.6968457 265.81656006 159.70619141 266.69562012 159.71582031 267.60131836 C159.68746972 273.40283031 158.91758837 278.64751313 157.4375 284.25 C157.22609375 285.12269531 157.0146875 285.99539063 156.796875 286.89453125 C153.62890815 298.16518254 148.19327731 307.53031155 140.4375 316.25 C139.56544922 317.26320313 139.56544922 317.26320313 138.67578125 318.296875 C114.66379305 344.34024615 69.47411188 353.56665205 35.60614014 355.46472168 C26.88275042 355.73779222 18.16433963 355.68377454 9.4387207 355.58294678 C6.66828264 355.55549804 3.89792706 355.54713077 1.12737465 355.53923798 C-35.39144873 355.43280921 -35.39144873 355.43280921 -52.3125 352.625 C-53.34689209 352.45532715 -54.38128418 352.2856543 -55.44702148 352.11083984 C-77.86034148 348.2611284 -98.80431533 342.47585985 -119.5625 333.25 C-119.5625 230.95 -119.5625 128.65 -119.5625 23.25 C-101.89065443 16.18126177 -101.89065443 16.18126177 -95.3125 14.25 C-94.4973291 14.00854248 -93.6821582 13.76708496 -92.84228516 13.51831055 C-75.43063816 8.511937 -57.50873104 4.74068406 -39.5625 2.25 C-38.53866211 2.0955542 -38.53866211 2.0955542 -37.49414062 1.93798828 C-25.04481764 0.10873539 -12.55638281 0.04092645 0 0 Z " fill="#211E1F" transform="translate(975.5625,33.75)"/>
<path d="M0 0 C1.40466522 0.00648056 1.40466522 0.00648056 2.83770752 0.01309204 C17.30963427 0.09116967 31.50122424 0.64818183 45.75 3.375 C46.63655273 3.53597168 47.52310547 3.69694336 48.43652344 3.86279297 C62.14259301 6.4317556 74.2867762 11.18084864 86.75 17.375 C86.91238817 25.61950751 86.40387952 33.77940532 85.8125 42 C85.72548828 43.27101562 85.63847656 44.54203125 85.54882812 45.8515625 C84.82649045 56.12480949 84.82649045 56.12480949 84.21484375 60.671875 C83.554633 65.931369 83.36923257 71.19141061 83.14453125 76.484375 C82.94017764 80.8674077 82.49094932 85.04507742 81.75 89.375 C81.50634285 92.79296833 81.31406136 96.2069096 81.14453125 99.62890625 C80.96062396 102.98362893 80.75103342 106.15500916 79.75 109.375 C75.67444931 108.92216103 71.93085926 108.17128568 68 107 C35.9106499 98.23265401 0.56488306 99.07950283 -28.6953125 115.75 C-33.18867413 118.60816275 -37.24916315 121.86842346 -41.25 125.375 C-41.94996094 125.97957031 -42.64992188 126.58414063 -43.37109375 127.20703125 C-56.97348676 139.80183959 -65.36394663 159.53717658 -66.39208984 177.91479492 C-67.12552877 198.57952976 -64.3792225 218.36848942 -50.875 234.9375 C-41.03241314 245.04791236 -29.10358672 250.32003831 -15.08349609 250.66699219 C-2.43054861 250.7812523 8.56308261 248.61385777 19.75 242.375 C20.74 242.045 21.73 241.715 22.75 241.375 C22.75 235.105 22.75 228.835 22.75 222.375 C20.0275 222.395625 17.305 222.41625 14.5 222.4375 C-1.75425284 222.49330042 -18.00544603 221.87684474 -34.25 221.375 C-34.37920508 208.27743355 -34.06116201 195.23837709 -33.45043945 182.1550293 C-33.31086889 179.15240946 -33.17943659 176.1495061 -33.04882812 173.14648438 C-32.96141229 171.20831186 -32.87353872 169.27015993 -32.78515625 167.33203125 C-32.74656998 166.4486055 -32.7079837 165.56517975 -32.66822815 164.65498352 C-32.42338563 159.51501817 -31.95416302 154.47290447 -31.25 149.375 C-20.72098031 148.65741907 -10.2073014 148.15626677 0.34375 147.875 C1.7879719 147.83426805 3.23218561 147.79324513 4.6763916 147.75195312 C8.44150795 147.64485483 12.20669855 147.54068999 15.97192383 147.4375 C21.9477308 147.27355116 27.92345713 147.10675292 33.89910889 146.93724251 C35.36138334 146.89577075 36.82366364 146.85450439 38.28594971 146.81344414 C47.43399713 146.55531876 56.57624816 146.23065782 65.71875 145.81640625 C75.73526221 145.36754317 85.72489999 145.25448184 95.75 145.3125 C97.32682143 145.31754661 98.9036445 145.3221037 100.48046875 145.32617188 C104.23701502 145.33687823 107.99349562 145.35395062 111.75 145.375 C112.81639545 148.89637163 112.93715072 152.21759753 113.03125 155.88671875 C113.04934219 156.56985138 113.06743439 157.25298401 113.08607483 157.95681763 C113.14629431 160.3252778 113.19856835 162.69383339 113.25 165.0625 C113.26956757 165.90469086 113.28913513 166.74688171 113.30929565 167.61459351 C113.77642292 187.91644948 114.02120243 208.22297415 114.27865601 228.52835464 C114.31193834 231.1433701 114.34586587 233.75837658 114.37988281 236.37338257 C114.49816082 245.56727053 114.5964025 254.76091695 114.66807747 263.95528889 C114.71259222 269.00373048 114.80422228 274.04911276 114.92825031 279.09620762 C115.00567844 282.42206296 115.05919637 285.74805985 115.10850334 289.0744381 C115.1373609 290.63761611 115.17684132 292.20064001 115.22778511 293.76325417 C115.65986608 307.23159045 115.65986608 307.23159045 111.84448242 311.75170898 C110.23527527 313.21824646 110.23527527 313.21824646 108.75 314.375 C108.11835937 315.00148438 107.48671875 315.62796875 106.8359375 316.2734375 C85.10989416 335.02331052 60.67460215 347.24977325 33.02685547 354.75488281 C30.93953869 355.32337784 28.86256011 355.91996353 26.78515625 356.5234375 C-0.93762554 364.13361289 -31.09440062 364.89651457 -59.25 359.375 C-60.38550293 359.1581958 -60.38550293 359.1581958 -61.54394531 358.93701172 C-99.97891725 351.38877778 -134.51725103 327.71365583 -156.51464844 295.52441406 C-184.59876424 253.6639871 -190.60613824 204.34875863 -181.25 155.375 C-174.36701817 122.09862921 -159.89934604 90.62973782 -138.25 64.375 C-137.78480957 63.80297852 -137.31961914 63.23095703 -136.84033203 62.64160156 C-114.42152377 35.18174487 -84.97881184 16.56126022 -51.1875 6 C-50.48262451 5.77344727 -49.77774902 5.54689453 -49.05151367 5.31347656 C-33.08153827 0.62420241 -16.52875761 -0.14553275 0 0 Z " fill="#211E1F" transform="translate(1858.25,28.625)"/>
<path d="M0 0 C0.95390625 0.5259375 1.9078125 1.051875 2.890625 1.59375 C12.58223605 7.18277723 20.83520641 14.40607816 29 22 C29.67933594 22.61359375 30.35867188 23.2271875 31.05859375 23.859375 C52.51763269 44.06627686 64.25958039 74.41302196 68.67529297 102.94482422 C68.96869848 104.80188253 69.29676126 106.65338414 69.62890625 108.50390625 C73.59753908 132.89850947 71.70587885 159.49706952 64 183 C63.59587891 184.2370166 63.59587891 184.2370166 63.18359375 185.49902344 C49.78116468 225.77883461 24.14412559 258.3865532 -13.76074219 278.09008789 C-44.23778704 293.2986454 -80.6869539 298.82803124 -114 291 C-114.7415332 290.82839355 -115.48306641 290.65678711 -116.24707031 290.47998047 C-127.37937472 287.82615673 -137.72622202 284.01966476 -148 279 C-148.71075684 278.65420898 -149.42151367 278.30841797 -150.15380859 277.95214844 C-164.06363865 271.09749277 -175.70925303 262.6917202 -187 252 C-187.82242187 251.23042969 -188.64484375 250.46085937 -189.4921875 249.66796875 C-217.623474 222.54450093 -233.6210983 182.83733712 -234.34936523 144.04663086 C-234.52701373 116.86979499 -230.01173946 91.51027688 -218 67 C-217.67161133 66.31486328 -217.34322266 65.62972656 -217.00488281 64.92382812 C-209.58681235 49.5804687 -199.76529853 36.31448661 -188 24 C-187.29230469 23.21753906 -186.58460937 22.43507812 -185.85546875 21.62890625 C-138.76520113 -28.50979437 -57.91751702 -31.97256596 0 0 Z " fill="#211E1F" transform="translate(1596,81)"/>
<path d="M0 0 C36.96 0 73.92 0 112 0 C112.66 7.59 113.32 15.18 114 23 C114.33 24.98 114.66 26.96 115 29 C115.10066989 30.96681518 115.15761513 32.93622315 115.17700195 34.90551758 C115.18963577 36.05560806 115.20226959 37.20569855 115.21528625 38.39064026 C115.2228746 39.62942429 115.23046295 40.86820831 115.23828125 42.14453125 C115.25310799 44.09582191 115.25310799 44.09582191 115.26823425 46.08653259 C115.63896128 102.37798006 110.67086122 156.93607702 94 211 C93.65388672 212.13453613 93.30777344 213.26907227 92.95117188 214.43798828 C78.51216626 260.95377914 52.98531922 309.33273974 8.3671875 332.89453125 C-19.5265679 346.81587691 -53.31133462 349.83005403 -83.08691406 340.33447266 C-97.10298167 335.53449604 -109.48210913 328.23761479 -121 319 C-121.70640625 318.45988281 -122.4128125 317.91976563 -123.140625 317.36328125 C-152.33758579 293.80394501 -164.8055045 251.21821158 -171 216 C-171.15307617 215.1342334 -171.30615234 214.2684668 -171.46386719 213.37646484 C-175.67380709 188.95408313 -176.43932959 164.47296742 -176.4375 139.75 C-176.43841141 138.9900901 -176.43932281 138.23018021 -176.44026184 137.44724274 C-176.47098974 108.72768217 -174.71158124 80.49760693 -171 52 C-170.80595543 50.4727019 -170.61225113 48.94536052 -170.41894531 47.41796875 C-168.68825121 33.87677134 -166.49975078 20.41937824 -164 7 C-140.28320181 7.73420563 -116.57126692 8.58405434 -92.85931396 9.45935059 C-88.11781675 9.63422195 -83.37628974 9.80828162 -78.63476562 9.98242188 C-69.42314875 10.32084725 -60.21156363 10.66012865 -51 11 C-51.50204984 15.71183812 -52.00578562 20.40825568 -52.796875 25.08203125 C-52.94833984 25.99412354 -53.09980469 26.90621582 -53.25585938 27.84594727 C-53.41892578 28.82490967 -53.58199219 29.80387207 -53.75 30.8125 C-57.59991857 54.56857279 -60.86921306 78.36298391 -63.25 102.3125 C-63.33290283 103.14363312 -63.41580566 103.97476624 -63.5012207 104.83108521 C-72.03542096 178.92419555 -72.03542096 178.92419555 -49.57788086 247.26245117 C-46.50102496 250.65065842 -44.77460454 251.92503827 -40.125 252.375 C-35.17421466 252.12791829 -31.86328162 250.85903724 -28.28515625 247.2890625 C-15.77542216 232.562067 -11.29910784 209.58744377 -8 191 C-7.85353027 190.19288574 -7.70706055 189.38577148 -7.55615234 188.55419922 C-4.92123015 173.71374079 -3.25837676 158.80665323 -1.8125 143.8125 C-1.72791534 142.95096313 -1.64333069 142.08942627 -1.55618286 141.20178223 C0.82588791 116.70164921 1.16475944 92.27404693 1.13037109 67.68017578 C1.12461754 63.54203493 1.1280054 59.40395818 1.13394356 55.26581955 C1.13757539 52.02965825 1.13639955 48.79351193 1.13381577 45.55735016 C1.1331567 44.03134401 1.13393847 42.50533644 1.13629532 40.97933197 C1.15992955 31.21820303 1.15992955 31.21820303 0.49169922 21.48535156 C-0.14787675 14.3503005 0 7.16365906 0 0 Z " fill="#211E1F" transform="translate(229,50)"/>
<path d="M0 0 C41.25 0 82.5 0 125 0 C122.7245727 29.58055485 122.7245727 29.58055485 121.31097412 42.37442017 C120.86872506 46.38013635 120.44020067 50.38732252 120.01171875 54.39453125 C119.92553284 55.19910263 119.83934692 56.00367401 119.75054932 56.83262634 C118.7510168 66.2324234 117.88288266 75.64416015 117.03930664 85.05908203 C116.4561825 91.48168507 115.78985735 97.88390408 115.01171875 104.28515625 C113.93300334 113.21506202 113.15092236 122.15935977 112.4375 131.125 C112.33986862 132.3352182 112.33986862 132.3352182 112.24026489 133.56988525 C111.41282043 143.87100412 110.71522787 154.15777201 110.34350586 164.48681641 C110.03801232 172.83391065 109.5330848 181.16504387 109 189.5 C108.95793427 190.17415955 108.91586853 190.84831909 108.87252808 191.54290771 C108.75143165 193.47671712 108.62578597 195.41023997 108.5 197.34375 C108.39171875 199.01727539 108.39171875 199.01727539 108.28125 200.72460938 C107.98595132 204.16360862 107.48813763 207.58303661 107 211 C139.34 211 171.68 211 205 211 C203.79525759 226.05928015 202.5722623 241.09431265 201.08984375 256.125 C200.91566845 257.90290681 200.74156218 259.68082038 200.56752014 261.45874023 C200.20864426 265.11864932 199.84796332 268.77837501 199.48608398 272.43798828 C199.02193758 277.13484345 198.56412243 281.83229423 198.10771847 286.52990723 C197.75303001 290.17085687 197.39433178 293.811403 197.03445625 297.45184326 C196.86357488 299.18693041 196.69413601 300.92216024 196.52616692 302.65753174 C196.29370379 305.05467765 196.0556768 307.45120614 195.81616211 309.84765625 C195.74809357 310.56219467 195.68002502 311.27673309 195.6098938 312.01292419 C195.11417837 316.88582163 195.11417837 316.88582163 194 318 C192.40329733 318.20510553 190.79830433 318.34597941 189.19262695 318.46142578 C188.14559097 318.53913208 187.09855499 318.61683838 186.01979065 318.69689941 C184.85439255 318.77887573 183.68899445 318.86085205 182.48828125 318.9453125 C181.25863144 319.03582886 180.02898163 319.12634521 178.7620697 319.21960449 C176.05206631 319.41898474 173.34199598 319.61682198 170.63171387 319.81231689 C163.16109722 320.3518576 155.69188048 320.91031779 148.22265625 321.46875 C147.42640713 321.52816395 146.630158 321.5875779 145.80978012 321.64879227 C124.94848929 323.20761101 104.09931909 324.9146363 83.25 326.625 C82.35536167 326.69838844 81.46072334 326.77177689 80.53897476 326.84738922 C77.01253596 327.13670469 73.4861002 327.42605712 69.95967388 327.71552467 C63.16925747 328.27277055 56.37865012 328.82765264 49.58788776 329.38066673 C45.28862452 329.73093726 40.98952238 330.08302801 36.69067383 330.43835449 C32.32614766 330.79900114 27.96128079 331.1552352 23.59615326 331.50852585 C21.96622826 331.64119381 20.33642583 331.77537836 18.70676422 331.91124344 C10.1287865 332.62550578 1.61686771 333.21637608 -7 333 C-7.02429551 325.93518471 -7.04145899 318.87037967 -7.05181217 311.80552959 C-7.0568069 308.51705964 -7.06408443 305.2286426 -7.07543945 301.94018555 C-7.24338509 251.82323238 -5.84405461 201.69869361 -4.67252779 151.59918976 C-4.62447751 149.54011009 -4.57670472 147.48102416 -4.5290184 145.42193604 C-3.40556938 96.93000247 -1.8711243 48.47102953 0 0 Z " fill="#211E1F" transform="translate(1154,36)"/>
<path d="M0 0 C-1.77786967 24.98035371 -3.69750506 49.94359156 -5.81713867 74.8972168 C-6.58860014 83.98294038 -7.35009162 93.06950152 -8.109375 102.15625 C-8.18785675 103.09528671 -8.2663385 104.03432343 -8.34719849 105.0018158 C-10.21819607 127.41840121 -11.96971594 149.84410241 -13.71570969 172.27070618 C-15.403079 193.93987949 -17.1156627 215.60631469 -18.92578125 237.265625 C-19.00534435 238.21783936 -19.08490746 239.17005371 -19.16688156 240.15112305 C-19.93141329 249.29365888 -20.70035988 258.43581273 -21.47641945 267.57737732 C-23.15614297 287.37550791 -24.71666815 307.17158811 -26 327 C-46.81344234 328.3345011 -67.63436357 329.47348462 -88.46400452 330.52221298 C-90.49438821 330.62471669 -92.52472577 330.72809387 -94.55505371 330.83169556 C-98.42199817 331.02832236 -102.28909081 331.22171018 -106.15625 331.4140625 C-107.89838776 331.50298515 -107.89838776 331.50298515 -109.67572021 331.59370422 C-110.77079895 331.64737656 -111.86587769 331.70104889 -112.99414062 331.75634766 C-113.94051392 331.80360992 -114.88688721 331.85087219 -115.86193848 331.89956665 C-119.90602681 332.0289973 -123.95384099 332 -128 332 C-128 224.42 -128 116.84 -128 6 C-107.21 5.01 -107.21 5.01 -86 4 C-75.00320255 3.26420084 -75.00320255 3.26420084 -64.0078125 2.5078125 C-53.82450317 1.83350871 -43.63151231 1.35504835 -33.4375 0.875 C-32.51389679 0.83052734 -31.59029358 0.78605469 -30.63870239 0.74023438 C-27.96631796 0.6123317 -25.29376228 0.48899475 -22.62109375 0.3671875 C-21.84293304 0.32979462 -21.06477234 0.29240173 -20.26303101 0.25387573 C-13.50832054 -0.04366939 -6.76031564 -0.03483065 0 0 Z " fill="#211E1F" transform="translate(839,46)"/>
<path d="M0 0 C6.12333898 5.01458625 9.56651129 10.93413147 13 18 C13.47953125 18.98033203 13.47953125 18.98033203 13.96875 19.98046875 C20.27851479 33.76730482 20.16995818 51.42627136 15.26464844 65.63671875 C10.4721223 78.15597069 2.047692 88.8594128 -10 95 C-20.90846687 99.75752478 -33.33926475 101.09136271 -44.734375 97.03515625 C-58.10963995 90.92404382 -67.09285177 80.01293431 -72.25 66.4375 C-78.02219759 50.20952344 -78.28352743 32.74717069 -71 17 C-64.28149283 3.82972539 -54.52864693 -3.43245988 -40.94921875 -8.8125 C-26.58219453 -13.24258884 -11.45996352 -9.15912142 0 0 Z " fill="#FDFDFD" transform="translate(1542,176)"/>
<path d="M0 0 C5.48666641 3.33541951 9.29632013 8.20801636 12 14 C12.8125 17.4375 12.8125 17.4375 13 21 C13.05027344 21.68835938 13.10054687 22.37671875 13.15234375 23.0859375 C13.46686232 30.25696088 12.19637747 37.60072789 7.6875 43.375 C0.3557333 50.5362605 -8.86110685 54.00092963 -19.13745117 53.99975586 C-21.38738659 53.91328621 -23.62878084 53.77991167 -25.875 53.625 C-26.64585937 53.58117187 -27.41671875 53.53734375 -28.2109375 53.4921875 C-33.86624765 53.13375235 -33.86624765 53.13375235 -35 52 C-35.0935919 50.28134591 -35.11744611 48.55884256 -35.11352539 46.83764648 C-35.11344986 45.73658066 -35.11337433 44.63551483 -35.11329651 43.50108337 C-35.10813522 42.3031868 -35.10297394 41.10529022 -35.09765625 39.87109375 C-35.0962413 38.65172623 -35.09482635 37.4323587 -35.09336853 36.17604065 C-35.08774967 32.2631693 -35.07519396 28.35035419 -35.0625 24.4375 C-35.05748743 21.79231853 -35.0529241 19.14713617 -35.04882812 16.50195312 C-35.03777411 10.00128274 -35.02101764 3.50064539 -35 -3 C-24.44612369 -6.51795877 -9.86282988 -4.6430281 0 0 Z " fill="#FBFAFA" transform="translate(1000,244)"/>
<path d="M0 0 C6.06716631 3.3844827 11.73954693 8.35960763 14.50390625 14.84375 C16.46983748 22.59030021 15.85015735 30.65426415 12.46875 37.88671875 C6.55272731 47.70193821 -2.55353105 51.58378486 -13.28125 54.48046875 C-17.26931405 55.23566889 -21.14270905 55.23688548 -25.1953125 55.2109375 C-27.0817749 55.20163208 -27.0817749 55.20163208 -29.00634766 55.19213867 C-30.44179932 55.18017456 -30.44179932 55.18017456 -31.90625 55.16796875 C-31.93143048 50.35229857 -31.94933077 45.53666873 -31.96118164 40.72094727 C-31.96613474 39.09105764 -31.97289905 37.46117227 -31.98168945 35.83129883 C-32.04080018 24.56896653 -31.70430242 13.40278332 -30.90625 2.16796875 C-21.23810455 -2.59555635 -10.27977006 -4.08505788 0 0 Z " fill="#FDFDFD" transform="translate(997.90625,137.83203125)"/>
<path d="M0 0 C0.33 0 0.66 0 1 0 C1 8.91 1 17.82 1 27 C-7.91 27 -16.82 27 -26 27 C-23.42036472 25.28024315 -21.05405945 24.08825997 -18.25 22.8125 C-8.38408814 17.87236364 -3.44726587 10.3417976 0 0 Z " fill="#000000" transform="translate(2025,401)"/>
<path d="M0 0 C1.71975685 2.57963528 2.91174003 4.94594055 4.1875 7.75 C8.29567746 15.95441254 13.47425803 20.18471677 21.765625 23.95703125 C24 25 24 25 27 27 C18.09 27 9.18 27 0 27 C0 18.09 0 9.18 0 0 Z " fill="#000000" transform="translate(0,401)"/>
<path d="M0 0 C8.91 0 17.82 0 27 0 C27 8.91 27 17.82 27 27 C25.28024315 24.42036472 24.08825997 22.05405945 22.8125 19.25 C18.70432254 11.04558746 13.52574197 6.81528323 5.234375 3.04296875 C3 2 3 2 0 0 Z " fill="#000000" transform="translate(1999,0)"/>
<path d="M0 0 C8.91 0 17.82 0 27 0 C24.42036472 1.71975685 22.05405945 2.91174003 19.25 4.1875 C11.04558746 8.29567746 6.81528323 13.47425803 3.04296875 21.765625 C2 24 2 24 0 27 C0 18.09 0 9.18 0 0 Z " fill="#000000" transform="translate(0,0)"/>
</svg>
